HIERARCHY
ROOT Hips
{
	OFFSET 0.000000 0.000000 0.000000
	CHANNELS 6 Xposition Yposition Zposition Xrotation Yrotation Zrotation
	JOINT LeftUpLeg_virtual
	{
		OFFSET 0.000000 0.000000 0.000000
		CHANNELS 3 Xrotation Yrotation Zrotation
		JOINT LeftUpLeg
		{
			OFFSET 10.205400 -3.823500 0.155100
			CHANNELS 3 Xrotation Yrotation Zrotation
			JOINT LeftLeg
			{
				OFFSET 0.708757 -12.982077 0.567790
				CHANNELS 3 Xrotation Yrotation Zrotation
				JOINT LeftFoot
				{
					OFFSET -0.708756 -10.717838 -2.184338
					CHANNELS 3 Xrotation Yrotation Zrotation
					JOINT LeftToeBase
					{
						OFFSET 0.108149 -7.191104 7.560241
						CHANNELS 3 Xrotation Yrotation Zrotation
						JOINT LeftToe_End
						{
							OFFSET 0.070230 0.081724 4.490308
							CHANNELS 3 Xrotation Yrotation Zrotation
							End Site
							{
								OFFSET 0 0 0
							}
						}
					}
				}
			}
		}
	}
	JOINT RightUpLeg_virtual
	{
		OFFSET 0.000000 0.000000 0.000000
		CHANNELS 3 Xrotation Yrotation Zrotation
		JOINT RightUpLeg
		{
			OFFSET -10.205400 -3.823500 0.005500
			CHANNELS 3 Xrotation Yrotation Zrotation
			JOINT RightLeg
			{
				OFFSET -0.708756 -12.982134 0.610632
				CHANNELS 3 Xrotation Yrotation Zrotation
				JOINT RightFoot
				{
					OFFSET 0.708754 -10.717769 -1.945823
					CHANNELS 3 Xrotation Yrotation Zrotation
					JOINT RightToeBase
					{
						OFFSET -0.108140 -7.191069 7.372968
						CHANNELS 3 Xrotation Yrotation Zrotation
						JOINT RightToe_End
						{
							OFFSET -0.070227 0.081735 4.479403
							CHANNELS 3 Xrotation Yrotation Zrotation
							End Site
							{
								OFFSET 0 0 0
							}
						}
					}
				}
			}
		}
	}
	JOINT Spine_virtual
	{
		OFFSET 0.000000 0.000000 0.000000
		CHANNELS 3 Xrotation Yrotation Zrotation
		JOINT Spine
		{
			OFFSET 0.000000 6.876099 0.125700
			CHANNELS 3 Xrotation Yrotation Zrotation
			JOINT Spine1
			{
				OFFSET 0.000000 5.730043 0.104720
				CHANNELS 3 Xrotation Yrotation Zrotation
				JOINT Spine1_split
				{
					OFFSET 0.000000 5.730043 0.104720
					CHANNELS 3 Xrotation Yrotation Zrotation
					JOINT Spine2
					{
						OFFSET 0.000000 5.730043 0.104720
						CHANNELS 3 Xrotation Yrotation Zrotation
						JOINT Neck_virtual
						{
							OFFSET 0.000000 0.000000 0.000000
							CHANNELS 3 Xrotation Yrotation Zrotation
							JOINT Neck
							{
								OFFSET 0.000000 10.314075 0.188496
								CHANNELS 3 Xrotation Yrotation Zrotation
								JOINT Head
								{
									OFFSET 0.000000 7.643700 -2.377400
									CHANNELS 3 Xrotation Yrotation Zrotation
									JOINT HeadTop_End
									{
										OFFSET 0.000000 43.788605 -13.619600
										CHANNELS 3 Xrotation Yrotation Zrotation
										End Site
										{
											OFFSET 0 0 0
										}
									}
								}
							}
						}
						JOINT LeftShoulder_virtual
						{
							OFFSET 0.000000 0.000000 0.000000
							CHANNELS 3 Xrotation Yrotation Zrotation
							JOINT LeftShoulder
							{
								OFFSET 2.196100 4.412489 0.087492
								CHANNELS 3 Xrotation Yrotation Zrotation
								JOINT LeftShoulder_split
								{
									OFFSET 2.196100 4.412489 0.087492
									CHANNELS 3 Xrotation Yrotation Zrotation
									JOINT LeftArm
									{
										OFFSET 8.771219 -2.981674 -0.026999
										CHANNELS 3 Xrotation Yrotation Zrotation
										JOINT LeftForeArm
										{
											OFFSET 8.512804 0.000000 -0.000000
											CHANNELS 3 Xrotation Yrotation Zrotation
											JOINT LeftHand
											{
												OFFSET 18.484802 0.000000 -0.000000
												CHANNELS 3 Xrotation Yrotation Zrotation
												End Site
												{
													OFFSET 0 0 0
												}
											}
										}
									}
								}
							}
						}
						JOINT RightShoulder_virtual
						{
							OFFSET 0.000000 0.000000 0.000000
							CHANNELS 3 Xrotation Yrotation Zrotation
							JOINT RightShoulder
							{
								OFFSET -2.196100 4.412496 0.070690
								CHANNELS 3 Xrotation Yrotation Zrotation
								JOINT RightShoulder_split
								{
									OFFSET -2.196100 4.412496 0.070690
									CHANNELS 3 Xrotation Yrotation Zrotation
									JOINT RightArm
									{
										OFFSET -8.771282 -2.981682 -0.094208
										CHANNELS 3 Xrotation Yrotation Zrotation
										JOINT RightForeArm
										{
											OFFSET -8.494598 0.000000 0.000000
											CHANNELS 3 Xrotation Yrotation Zrotation
											JOINT RightHand
											{
												OFFSET -18.483803 0.000000 0.000001
												CHANNELS 3 Xrotation Yrotation Zrotation
												End Site
												{
													OFFSET 0 0 0
												}
											}
										}
									}
								}
							}
						}
					}
				}
			}
		}
	}
}
MOTION
Frames: 11
Frame Time: 0.03333333
-0.474928 6.321953 3.884453 0.000000 0.000000 0.000000 -89.127063 -3.296706 -2.487352 -23.623534 14.835931 -4.750400 31.945929 -6.304882 -2.983836 -1.576374 5.639348 10.051380 8.778464 -0.197413 2.045934 0.000000 0.000000 0.000000 -90.691252 -3.703161 -5.352038 -7.933428 -7.004143 -5.336318 14.030933 0.145344 5.742712 7.261785 -4.807777 26.628619 -0.808468 -1.863084 -1.239831 0.000000 0.000000 0.000000 -87.140264 -3.681083 -4.759525 3.176178 2.767771 1.176401 -1.305686 0.956298 -0.100748 0.475479 0.377148 -0.273821 0.000000 0.000000 0.000000 -2.195273 0.438670 0.245685 2.403731 0.708614 -0.176928 10.502930 -5.119335 10.209172 0.000000 0.000000 0.000000 -2.868741 1.004018 0.209578 0.940159 -13.945977 -3.446715 -2.896970 0.116828 -3.947985 27.351981 0.546902 -69.281928 -178.926491 -39.308968 -178.125501 0.000000 0.000000 0.000000 -2.127324 0.696639 -0.669915 1.098911 2.553427 0.485444 1.052665 4.604716 0.330462 12.460123 7.103914 72.872996 -179.755389 46.184571 -179.419302 0.000000 0.000000 0.000000 
-0.474585 6.321743 3.884769 0.000000 0.000000 0.000000 -89.125663 -3.297053 -2.487532 -23.626343 14.833144 -4.751773 31.948702 -6.304103 -2.984044 -1.574705 5.639911 10.049202 8.778032 -0.197594 2.045147 0.000000 0.000000 0.000000 -90.688076 -3.700791 -5.348542 -7.932647 -7.007620 -5.338347 14.028151 0.146012 5.744107 7.262629 -4.810008 26.624663 -0.807492 -1.863862 -1.238573 0.000000 0.000000 0.000000 -87.139034 -3.681923 -4.761396 3.177489 2.767238 1.175988 -1.307578 0.956049 -0.100812 0.476791 0.384764 -0.275124 0.000000 0.000000 0.000000 -2.196571 0.437780 0.245063 2.400073 0.707843 -0.177636 10.504445 -5.118666 10.206510 0.000000 0.000000 0.000000 -2.872100 1.004285 0.208695 0.942114 -13.946004 -3.440429 -2.900231 0.116704 -3.957328 27.354628 0.553208 -69.290780 -178.922392 -39.297384 -178.121116 0.000000 0.000000 0.000000 -2.128851 0.696438 -0.670396 1.096646 2.550972 0.481454 1.062584 4.610761 0.329017 12.467642 7.101433 72.872600 -179.756468 46.166956 -179.419261 0.000000 0.000000 0.000000 
-0.474381 6.321346 3.885183 0.000000 0.000000 0.000000 -89.122419 -3.296956 -2.487883 -23.632601 14.831119 -4.751887 31.956577 -6.302702 -2.985139 -1.574287 5.640400 10.048379 8.777860 -0.197595 2.045479 0.000000 0.000000 0.000000 -90.683308 -3.697635 -5.344717 -7.933858 -7.014209 -5.340875 14.025917 0.145751 5.746776 7.261059 -4.815293 26.614662 -0.801130 -1.864346 -1.236568 0.000000 0.000000 0.000000 -87.136903 -3.683417 -4.764125 3.177438 2.764789 1.177242 -1.309835 0.955519 -0.102067 0.475749 0.390362 -0.277008 0.000000 0.000000 0.000000 -2.196837 0.437424 0.243238 2.399041 0.708985 -0.175549 10.505282 -5.119600 10.208215 0.000000 0.000000 0.000000 -2.875337 1.004668 0.207857 0.945379 -13.946266 -3.419974 -2.901544 0.118641 -3.965653 27.360672 0.566086 -69.309481 -178.917775 -39.280636 -178.117414 0.000000 0.000000 0.000000 -2.131244 0.695828 -0.671552 1.094359 2.545112 0.474413 1.075363 4.623346 0.329092 12.477608 7.101282 72.873959 -179.754815 46.149771 -179.418879 0.000000 0.000000 0.000000 
-0.474261 6.320753 3.885363 0.000000 0.000000 0.000000 -89.117351 -3.297196 -2.488424 -23.640296 14.829678 -4.751539 31.967095 -6.300822 -2.986194 -1.575582 5.640935 10.047925 8.777038 -0.197447 2.046956 0.000000 0.000000 0.000000 -90.676902 -3.694367 -5.340976 -7.938159 -7.023257 -5.344390 14.024263 0.146273 5.750665 7.260554 -4.821247 26.603252 -0.791646 -1.864295 -1.234863 0.000000 0.000000 0.000000 -87.133946 -3.685260 -4.766812 3.175379 2.760767 1.179880 -1.312418 0.954616 -0.103746 0.474620 0.393207 -0.277538 0.000000 0.000000 0.000000 -2.196033 0.437787 0.241059 2.400603 0.711833 -0.171719 10.503254 -5.123570 10.214007 0.000000 0.000000 0.000000 -2.878342 1.005470 0.207711 0.948905 -13.944578 -3.393495 -2.905085 0.120202 -3.970269 27.367304 0.581584 -69.329651 -178.913704 -39.266355 -178.114149 0.000000 0.000000 0.000000 -2.134480 0.695056 -0.672701 1.092203 2.537477 0.466882 1.087931 4.638671 0.330426 12.488576 7.101369 72.873809 -179.750457 46.137979 -179.418906 0.000000 0.000000 0.000000 
-0.474194 6.320063 3.885151 0.000000 0.000000 0.000000 -89.110541 -3.298486 -2.489246 -23.646897 14.828377 -4.751437 31.977139 -6.298509 -2.986364 -1.579093 5.641581 10.048007 8.774910 -0.197219 2.049179 0.000000 0.000000 0.000000 -90.669122 -3.691453 -5.337275 -7.945155 -7.033716 -5.347980 14.022487 0.149049 5.755060 7.262473 -4.826399 26.594250 -0.783361 -1.863929 -1.234458 0.000000 0.000000 0.000000 -87.129930 -3.687196 -4.768575 3.171334 2.755819 1.183942 -1.315356 0.953600 -0.104962 0.475929 0.391084 -0.276542 0.000000 0.000000 0.000000 -2.194354 0.439043 0.239617 2.403706 0.715947 -0.167607 10.495503 -5.129504 10.222456 0.000000 0.000000 0.000000 -2.880634 1.006936 0.208734 0.951745 -13.937202 -3.370980 -2.909968 0.118367 -3.974795 27.372123 0.594751 -69.341645 -178.910877 -39.258104 -178.111485 0.000000 0.000000 0.000000 -2.137800 0.694542 -0.673051 1.090387 2.530729 0.461016 1.097369 4.656440 0.330145 12.498256 7.100367 72.868980 -179.743832 46.132050 -179.420026 0.000000 0.000000 0.000000 
-0.474037 6.319223 3.884628 0.000000 0.000000 0.000000 -89.102611 -3.300141 -2.489451 -23.651205 14.827302 -4.752210 31.983655 -6.295418 -2.985402 -1.585223 5.642529 10.049689 8.773171 -0.196968 2.051104 0.000000 0.000000 0.000000 -90.661418 -3.689814 -5.334193 -7.952397 -7.044317 -5.350845 14.019750 0.153797 5.758536 7.264639 -4.831734 26.587760 -0.776268 -1.863608 -1.235448 0.000000 0.000000 0.000000 -87.124971 -3.689299 -4.769095 3.165858 2.750853 1.189384 -1.318667 0.952912 -0.104798 0.479047 0.386134 -0.273069 0.000000 0.000000 0.000000 -2.192078 0.440993 0.239798 2.406571 0.720922 -0.164527 10.481135 -5.137423 10.232453 0.000000 0.000000 0.000000 -2.882755 1.009268 0.211038 0.952813 -13.922156 -3.362443 -2.918333 0.112330 -3.979163 27.374476 0.605987 -69.337601 -178.909961 -39.258739 -178.109067 0.000000 0.000000 0.000000 -2.141117 0.694590 -0.672178 1.089466 2.528122 0.457863 1.103532 4.674973 0.329585 12.505486 7.098394 72.857983 -179.736005 46.127870 -179.422048 0.000000 0.000000 0.000000 
-0.473740 6.318260 3.883589 0.000000 0.000000 0.000000 -89.095603 -3.302590 -2.489350 -23.652660 14.825919 -4.753541 31.984365 -6.292052 -2.983584 -1.592819 5.643801 10.053220 8.773101 -0.196724 2.052129 0.000000 0.000000 0.000000 -90.655892 -3.690361 -5.331982 -7.958446 -7.053924 -5.352630 14.016510 0.158578 5.760561 7.265073 -4.839036 26.581182 -0.767554 -1.863712 -1.236926 0.000000 0.000000 0.000000 -87.119316 -3.690994 -4.767476 3.160030 2.746200 1.196362 -1.322510 0.952813 -0.103174 0.484361 0.379993 -0.268838 0.000000 0.000000 0.000000 -2.189760 0.443393 0.241426 2.408039 0.726310 -0.163745 10.461453 -5.145709 10.242045 0.000000 0.000000 0.000000 -2.884645 1.011961 0.214266 0.951454 -13.899939 -3.372570 -2.925091 0.107887 -3.981147 27.368781 0.619396 -69.316298 -178.911054 -39.267840 -178.106212 0.000000 0.000000 0.000000 -2.143948 0.695211 -0.670176 1.089416 2.530393 0.457494 1.109963 4.693832 0.329693 12.510468 7.099941 72.842677 -179.729857 46.122287 -179.422772 0.000000 0.000000 0.000000 
-0.473418 6.317192 3.882168 0.000000 0.000000 0.000000 -89.090781 -3.305703 -2.488586 -23.651292 14.824499 -4.754859 31.979093 -6.288505 -2.981865 -1.600385 5.645475 10.058896 8.775231 -0.196403 2.051942 0.000000 0.000000 0.000000 -90.653788 -3.693170 -5.330876 -7.963447 -7.061435 -5.353555 14.014202 0.162071 5.761154 7.264425 -4.848771 26.573192 -0.756135 -1.864663 -1.237884 0.000000 0.000000 0.000000 -87.113394 -3.692981 -4.764077 3.154423 2.741814 1.204949 -1.326873 0.953148 -0.100843 0.488122 0.373565 -0.267812 0.000000 0.000000 0.000000 -2.187471 0.445628 0.243685 2.407624 0.732213 -0.164751 10.439728 -5.154749 10.250821 0.000000 0.000000 0.000000 -2.886198 1.014646 0.217747 0.948160 -13.871192 -3.399533 -2.928619 0.109036 -3.981151 27.350972 0.637543 -69.280050 -178.914251 -39.281811 -178.103384 0.000000 0.000000 0.000000 -2.145917 0.695925 -0.667789 1.090345 2.537814 0.458930 1.113045 4.713117 0.330887 12.516064 7.107143 72.826933 -179.727521 46.117120 -179.420463 0.000000 0.000000 0.000000 
-0.472929 6.315989 3.880320 0.000000 0.000000 0.000000 -89.088404 -3.309172 -2.487157 -23.648009 14.823865 -4.755890 31.969609 -6.284960 -2.981461 -1.606023 5.647875 10.065950 8.779145 -0.195961 2.050901 0.000000 0.000000 0.000000 -90.655305 -3.698073 -5.330967 -7.967578 -7.065522 -5.354532 14.014126 0.165134 5.761173 7.265847 -4.859097 26.565210 -0.746045 -1.866323 -1.238054 0.000000 0.000000 0.000000 -87.108490 -3.695314 -4.759193 3.149381 2.737291 1.215248 -1.331564 0.953677 -0.098597 0.490188 0.368116 -0.269110 0.000000 0.000000 0.000000 -2.185387 0.447191 0.245571 2.406002 0.738418 -0.166287 10.418370 -5.164915 10.259094 0.000000 0.000000 0.000000 -2.887991 1.016777 0.220699 0.943711 -13.838463 -3.438586 -2.934851 0.119726 -3.980850 27.326110 0.656670 -69.235012 -178.919401 -39.299665 -178.100967 0.000000 0.000000 0.000000 -2.147228 0.696329 -0.665917 1.092451 2.549967 0.461515 1.111960 4.731749 0.334177 12.522326 7.118155 72.814570 -179.729707 46.116840 -179.414412 0.000000 0.000000 0.000000 
-0.472290 6.314631 3.878117 0.000000 0.000000 0.000000 -89.088022 -3.312196 -2.484899 -23.642973 14.824596 -4.756231 31.957789 -6.281858 -2.983026 -1.609488 5.650779 10.074382 8.782813 -0.195486 2.050067 0.000000 0.000000 0.000000 -90.658945 -3.703601 -5.331584 -7.970904 -7.066077 -5.355830 14.014078 0.169014 5.760988 7.272111 -4.868039 26.559056 -0.742591 -1.868186 -1.237802 0.000000 0.000000 0.000000 -87.104767 -3.698472 -4.754121 3.145298 2.731949 1.227161 -1.336452 0.953931 -0.097118 0.488344 0.365880 -0.270113 0.000000 0.000000 0.000000 -2.182895 0.447904 0.246447 2.403504 0.746061 -0.167692 10.398371 -5.174708 10.266970 0.000000 0.000000 0.000000 -2.889890 1.018144 0.222776 0.939301 -13.804656 -3.480454 -2.941376 0.134992 -3.980302 27.303311 0.668750 -69.191155 -178.925726 -39.319688 -178.099928 0.000000 0.000000 0.000000 -2.147674 0.696054 -0.665270 1.094847 2.564484 0.463158 1.111721 4.749017 0.338114 12.526760 7.129198 72.807119 -179.735991 46.122809 -179.405328 0.000000 0.000000 0.000000 
-0.471492 6.313251 3.875565 0.000000 0.000000 0.000000 -89.088596 -3.314047 -2.482061 -23.636127 14.826281 -4.755775 31.943955 -6.279174 -2.986418 -1.612468 5.654280 10.086032 8.784880 -0.195004 2.050223 0.000000 0.000000 0.000000 -90.661943 -3.707952 -5.331951 -7.972309 -7.063768 -5.357417 14.012246 0.173915 5.761019 7.283207 -4.875270 26.553962 -0.746860 -1.869773 -1.237427 0.000000 0.000000 0.000000 -87.101953 -3.702690 -4.750330 3.142181 2.725541 1.240234 -1.340842 0.953810 -0.096450 0.486191 0.361587 -0.271368 0.000000 0.000000 0.000000 -2.179694 0.447917 0.246585 2.400995 0.755696 -0.168031 10.378961 -5.183296 10.274838 0.000000 0.000000 0.000000 -2.892214 1.019042 0.223945 0.936409 -13.772314 -3.515776 -2.947567 0.147303 -3.981146 27.292678 0.668538 -69.155440 -178.930616 -39.341251 -178.100106 0.000000 0.000000 0.000000 -2.147956 0.695155 -0.665863 1.097270 2.578715 0.462441 1.114157 4.762657 0.342384 12.525349 7.135077 72.803055 -179.744064 46.133376 -179.395588 0.000000 0.000000 0.000000 
